<svg width="125" height="56" viewBox="0 0 125 56" fill="none" xmlns="http://www.w3.org/2000/svg">
<path d="M12.8614 8.51204C10.9578 7.92771 9.81926 6.53012 9.81926 4.95181C9.81926 3.49398 10.8855 1.97591 12.5602 1.21688C14.0843 0.518082 16.0602 0.2229 18.1144 0.2229C21.3072 0.2229 24.6566 0.69278 28.4638 1.27109C32.5722 1.85543 36.5301 2.37952 40.5602 2.37952C44.0602 2.37952 47.5602 1.96989 50.9096 0.686755C51.0602 0.626514 51.2108 0.626515 51.3674 0.626515C51.9758 0.626515 52.277 1.03615 52.277 1.38555C52.277 1.67471 52.1264 1.90965 51.7469 2.0241C48.0963 3.42169 44.2891 3.89157 40.5602 3.89157C39.4216 3.89157 38.2771 3.83133 37.1385 3.77711C37.0602 3.95181 36.8373 4.06627 36.6807 4.12651C33.9397 5.06024 30.0602 12.759 26.5602 19.8193H33.6325C34.1626 19.8193 34.6204 20.1084 34.6204 20.518C34.6204 20.9277 34.1626 21.2771 33.6325 21.2771H25.8735C23.5903 25.7711 21.3855 30.3192 19.3313 33.5241C17.4277 36.5 13.6988 38.2469 9.59035 38.2469C4.72288 38.2469 1.29518 36.2048 0.0783138 33.3494C6.46315e-07 33.2349 0 33.0602 0 33C0 32.5903 0.379518 32.3012 0.915662 32.3012C1.29518 32.3012 1.60241 32.5361 1.75301 32.8253C2.96988 35.506 6.39156 36.7891 9.66264 36.7891C13.0843 36.7891 16.0542 35.3915 17.6506 32.8795C19.5542 29.9036 21.6807 25.5903 23.8132 21.2711H14.9156C14.3855 21.2711 14 20.9217 14 20.512C14 20.1024 14.3795 19.8132 14.9156 19.8132H24.5783C28.765 11.3554 31.7289 5.69879 34.5421 3.53615C32.3373 3.30121 30.1265 3.01205 28.0722 2.71687C24.4216 2.19278 20.9217 1.7229 17.8012 1.7229C16.4337 1.7229 14.9096 1.8976 13.7711 2.36748C12.5542 2.89157 11.7169 3.71085 11.7169 4.99398C11.7169 5.92771 12.4759 6.74699 13.6205 7.1506C14 7.26506 14.2289 7.56024 14.2289 7.84939C14.2289 8.25903 13.6988 8.54819 13.2409 8.54819C13.0903 8.57228 13.012 8.57229 12.8614 8.51204Z" fill="#FD93DB"/>
<path d="M42.6084 34.1807C42.6084 31.7891 43.5241 29.512 44.4337 27.4698L33.9337 37.3313C33.7048 37.506 33.4759 37.5662 33.247 37.5662C32.6386 37.5662 32.259 37.2168 32.259 36.8674C32.259 36.6927 32.3373 36.518 32.488 36.3975C33.247 35.8132 43.8976 25.7229 46.3373 23.3313C52.5783 10.5542 55.771 6.12047 56.759 4.72288C59.5722 0.759035 61.9337 0 63.3795 0C65.2831 0 66.0421 1.34337 66.0421 2.56626C66.0421 3.3253 65.8132 4.19879 65.2831 5.01807C62.4698 9.51203 53.8674 18.3735 48.012 24.0903C46.4156 27.3554 45.0421 30.4457 44.6626 32.5481C44.5843 33.1927 44.512 33.7168 44.512 34.1204C44.512 35.2891 44.6626 36.2228 46.3373 36.2228C48.6988 36.2228 54.8614 30.271 57.9759 27.8795C58.2048 27.7048 58.4337 27.5903 58.7349 27.5903C59.3433 27.5903 59.6506 28 59.6506 28.3494C59.6506 28.5241 59.5 28.759 59.3494 28.8734C56.0783 31.3795 49.9939 37.7409 46.1084 37.7409C43.5241 37.7349 42.6084 35.8132 42.6084 34.1807ZM58.4337 5.42168C55.5421 9.27107 52.5783 15.1626 50.4458 19.3072C55.6204 14.0602 61.3253 7.81324 63.5301 4.37349C63.9879 3.67469 64.1385 3.03012 64.1385 2.56626C64.1385 1.98193 63.9096 1.45783 63.3012 1.45783C62.3915 1.45181 60.6445 2.44578 58.4337 5.42168Z" fill="#FD93DB"/>
<path d="M69.9998 34.3556C69.9998 33.9459 70.0781 33.5965 70.1504 33.1327C67.789 35.3495 64.6745 37.7411 60.8673 37.7411C57.5962 37.7411 55.9215 35.8134 55.9215 33.3676C55.9215 26.952 65.6625 19.2532 74.7167 19.2532C77.2287 19.2532 78.7468 19.7773 78.9034 19.8375C79.2829 19.952 79.5901 20.1267 79.5901 20.4218C79.5901 20.5363 79.5118 20.711 79.4395 20.8315C79.2106 21.1809 76.9275 25.3797 73.5058 29.5242C72.5902 31.3917 71.9094 33.1387 71.9094 34.3676C71.9094 35.4158 72.5962 36.2953 73.8853 36.2953C76.4697 36.2953 84.307 29.47 86.1323 27.8977C86.5118 27.6086 86.6624 27.6086 86.8913 27.6086C87.4215 27.6086 87.807 28.0182 87.807 28.3676C87.807 28.5423 87.6564 28.7773 87.4998 28.8917C80.6504 34.6688 76.7709 37.7592 73.8793 37.7592C71.2167 37.7351 69.9998 36.0423 69.9998 34.3556ZM57.8251 33.4218C57.8251 34.9399 58.8131 36.2833 60.795 36.2833C65.054 36.2833 69.6203 31.6748 71.7528 28.9339C73.4275 25.723 75.8612 22.458 77.0781 20.9399C76.4697 20.8255 75.6323 20.705 74.6444 20.705C66.3492 20.705 57.8251 28.1688 57.8251 33.4218Z" fill="#FD93DB"/>
<path d="M86.7407 35.3434C86.7407 32.7771 89.2527 28.5181 90.9274 25.8374C88.7949 27.7651 88.3431 28.229 87.5057 28.8735C87.2768 29.0482 87.1262 29.1085 86.8973 29.1085C86.3672 29.1085 85.9816 28.6988 85.9816 28.3494C85.9816 28.1747 86.0599 28 86.2105 27.8796C86.5901 27.5302 87.8069 26.3073 90.0178 24.3796L94.9635 19.9458C95.1141 19.7711 95.4214 19.6567 95.7226 19.6567C96.331 19.6567 96.6382 19.8916 96.6382 20.3013C96.6382 20.4157 96.6382 20.6507 96.5599 20.7651C96.1021 21.3495 93.819 24.5 91.7648 27.9398C90.2407 30.5663 88.8732 33.3073 88.6443 35.1145C88.6443 35.8133 88.7226 36.3374 89.4816 36.3374C90.0901 36.3374 90.9274 36.1024 91.8431 35.4639C96.9394 31.9037 101.427 27.9398 101.506 27.8796C101.656 27.7049 101.964 27.6446 102.265 27.6446C102.873 27.6446 103.18 28.0543 103.18 28.3434C103.18 28.5181 103.03 28.7531 102.873 28.8675C102.795 28.9277 99.9033 31.6687 93.0599 36.5121C91.8431 37.3856 90.5479 37.7952 89.4093 37.7952C87.4214 37.7952 86.7407 36.5121 86.7407 35.3434ZM100.204 15.3374C99.1382 15.3374 98.7587 14.6928 98.7587 13.994C98.7587 13.0603 99.6684 12.3013 100.735 12.3013C101.801 12.3013 102.259 12.9398 102.259 13.5844C102.259 14.988 100.97 15.3374 100.204 15.3374Z" fill="#FD93DB"/>
<path d="M108.5 35.3435C108.5 33.5363 110.783 30.6206 112.229 28.8676C112.229 28.8676 114.054 26.5363 115.042 24.958C115.343 24.4339 115.572 23.964 115.572 23.6146C115.572 23.2652 115.422 23.0303 114.506 23.0303H112.91C111.922 23.0303 110.934 22.7953 110.548 21.9218C108.494 23.9037 105.831 26.2953 102.862 28.8616C102.711 29.0363 102.404 29.0965 102.175 29.0965C101.566 29.0965 101.259 28.7471 101.259 28.3977C101.259 28.223 101.337 28.0483 101.488 27.8736C104.458 25.3074 107.121 22.8556 109.175 20.9339C110.241 19.8857 111 19.2411 111.608 18.6568C111.759 18.4821 112.139 18.3074 112.446 18.3074C113.133 18.3074 113.434 18.6568 113.434 18.952C113.434 19.1869 113.283 19.476 113.054 19.7712C112.446 20.6447 112.368 21.1688 112.368 21.3435C112.368 21.5785 112.898 21.5785 113.355 21.5785H114.952C116.398 21.5785 117.464 22.3977 117.464 23.3857C117.464 24.9037 115.259 27.7592 113.813 29.6266C112.289 31.6086 110.392 34.0001 110.392 35.3435C110.392 35.9278 111 36.2772 111.608 36.2772C111.91 36.2772 112.295 36.217 112.596 36.0423C116.476 33.8857 120.506 30.0363 123.325 27.8736C123.476 27.7592 123.783 27.6387 124.012 27.6387C124.47 27.6387 125 27.9881 125 28.3375C125 28.5122 124.849 28.7471 124.693 28.8616C122.259 30.9037 117.313 35.2772 113.663 37.2591C113.054 37.5483 112.295 37.723 111.608 37.723C109.789 37.7351 108.5 36.6266 108.5 35.3435Z" fill="#FD93DB"/>
<path d="M6.6917 55.2758C6.6917 55.4347 6.64462 55.47 6.48571 55.47H6.34446C6.19144 55.47 6.15024 55.4347 6.15024 55.2758V51.1384C6.15024 50.7205 6.1679 50.1084 6.2091 49.6788C6.16201 49.8259 6.10316 50.0437 6.01488 50.2556L3.64306 55.3288C3.59598 55.4465 3.52535 55.47 3.41942 55.47H3.17812C3.07218 55.47 3.01332 55.4465 2.97801 55.3288L0.66505 50.2556C0.576769 50.079 0.517915 49.8907 0.482603 49.7436C0.517915 50.132 0.535571 50.7029 0.535571 51.0854V55.2758C0.535571 55.4347 0.500259 55.47 0.341353 55.47H0.200104C0.0353125 55.47 0 55.4347 0 55.2758V49.4434C0 49.2551 0.0353119 49.2198 0.223645 49.2198H0.582654C0.776873 49.2198 0.812185 49.261 0.876924 49.4199L3.10161 54.3518C3.184 54.5343 3.24874 54.7579 3.31348 54.9404C3.37233 54.752 3.45473 54.5225 3.53712 54.3518L5.83243 49.4081C5.89128 49.2492 5.93248 49.2139 6.1267 49.2139H6.47982C6.66227 49.2139 6.70347 49.2492 6.70347 49.4375V55.2758H6.6917Z" fill="#937B26"/>
<path d="M10.4642 55.2692V49.4779C10.4642 49.2661 10.5054 49.2249 10.7291 49.2249H14.0131C14.1544 49.2249 14.1897 49.2307 14.1897 49.3249C14.1897 49.525 14.0308 49.7016 13.6718 49.7016H11.0351V51.9851H13.454C13.5953 51.9851 13.6306 51.991 13.6306 52.0852C13.6306 52.2794 13.4717 52.4559 13.1127 52.4559H11.041V54.9984H13.9248C14.1014 54.9984 14.1485 55.0337 14.1485 55.1809V55.2868C14.1485 55.4457 14.1014 55.4751 13.9248 55.4751H10.6996C10.5054 55.4693 10.4642 55.4457 10.4642 55.2692Z" fill="#937B26"/>
<path d="M19.669 55.4693H17.5973C17.409 55.4693 17.3678 55.4457 17.3678 55.2692V49.4779C17.3678 49.2661 17.409 49.2249 17.6326 49.2249H19.669C21.982 49.2249 23.059 50.4667 23.059 52.3382C23.059 54.1921 21.982 55.4693 19.669 55.4693ZM17.9328 49.6957V54.9925H19.6984C21.7112 54.9925 22.4704 53.7743 22.4704 52.3265C22.4704 50.8551 21.7112 49.6957 19.6984 49.6957H17.9328Z" fill="#937B26"/>
<path d="M26.9727 55.2692C26.9727 55.4398 26.9256 55.4693 26.7608 55.4693H26.6196C26.443 55.4693 26.4077 55.4339 26.4077 55.2692V49.4544C26.4077 49.2602 26.443 49.2249 26.6372 49.2249H26.7373C26.9315 49.2249 26.9786 49.2602 26.9786 49.4544V55.2692H26.9727Z" fill="#937B26"/>
<path d="M33.6998 49.1072C34.459 49.1072 35.024 49.2779 35.3536 49.4485C35.6361 49.5957 35.6773 49.7546 35.6773 49.9252C35.6773 50.043 35.6361 50.0606 35.5007 50.0076C35.0946 49.8134 34.6356 49.5839 33.7174 49.5839C31.7399 49.5839 30.8924 50.7492 30.8924 52.4265C30.8924 54.0568 31.7164 55.1103 33.7057 55.1103C34.612 55.1103 35.0299 54.9631 35.5949 54.7513C35.7067 54.6983 35.7538 54.7336 35.7538 54.8454C35.7538 54.9278 35.7302 55.1044 35.5242 55.228C35.2241 55.4104 34.5826 55.5929 33.6821 55.5929C31.4927 55.5929 30.3216 54.5335 30.3216 52.4383C30.3157 50.3431 31.4927 49.1072 33.6998 49.1072Z" fill="#937B26"/>
<path d="M42.5456 53.5977H39.5028L38.8025 55.2986C38.7436 55.4399 38.6965 55.4693 38.5376 55.4693H38.3552C38.2198 55.4693 38.1786 55.4163 38.2316 55.2927L40.7034 49.3779C40.7564 49.2484 40.7917 49.219 40.9624 49.219H41.1213C41.292 49.219 41.3273 49.2602 41.3685 49.3779L43.8345 55.2927C43.8757 55.4163 43.8345 55.4693 43.7168 55.4693H43.4872C43.3342 55.4693 43.3048 55.4457 43.2459 55.2927L42.5456 53.5977ZM39.6912 53.121H42.3514L41.0271 49.9017L39.6912 53.121Z" fill="#937B26"/>
<path d="M46.9478 55.2692V49.4544C46.9478 49.2602 46.9831 49.2249 47.1773 49.2249H47.2715C47.4657 49.2249 47.5128 49.2602 47.5128 49.4544V54.9984H50.3731C50.5556 54.9984 50.5968 55.0337 50.5968 55.1809V55.2868C50.5968 55.4457 50.5614 55.4751 50.3731 55.4751H47.1597C46.9831 55.4693 46.9478 55.4339 46.9478 55.2692Z" fill="#937B26"/>
<path d="M60.908 53.5977H57.8652L57.1649 55.2986C57.106 55.4399 57.0589 55.4693 56.9 55.4693H56.7176C56.5822 55.4693 56.541 55.4163 56.594 55.2927L59.0659 49.3779C59.1188 49.2484 59.1542 49.219 59.3248 49.219H59.4837C59.6544 49.219 59.6897 49.2602 59.7309 49.3779L62.1969 55.2927C62.2381 55.4163 62.1969 55.4693 62.0792 55.4693H61.8497C61.6966 55.4693 61.6672 55.4457 61.6084 55.2927L60.908 53.5977ZM58.0536 53.121H60.7138L59.3896 49.9017L58.0536 53.121Z" fill="#937B26"/>
<path d="M65.3102 55.2692V49.4779C65.3102 49.2661 65.3514 49.2249 65.5751 49.2249H68.8591C69.0004 49.2249 69.0357 49.2307 69.0357 49.3249C69.0357 49.525 68.8768 49.7016 68.5178 49.7016H65.8811V51.9851H68.3C68.4413 51.9851 68.4766 51.991 68.4766 52.0852C68.4766 52.2794 68.3177 52.4559 67.9587 52.4559H65.887V54.9984H68.7709C68.9474 54.9984 68.9945 55.0337 68.9945 55.1809V55.2868C68.9945 55.4457 68.9474 55.4751 68.7709 55.4751H65.5457C65.3573 55.4693 65.3102 55.4457 65.3102 55.2692Z" fill="#937B26"/>
<path d="M72.5435 50.608C72.5435 51.4378 73.4204 51.6202 74.3208 51.9381C75.2213 52.2382 76.0276 52.6737 76.0276 53.8096C76.0276 54.9514 75.2154 55.587 73.797 55.587C73.0849 55.587 72.4375 55.4281 72.0667 55.2515C71.7489 55.1044 71.6606 54.9514 71.6606 54.7572C71.6606 54.5688 71.7313 54.5983 71.8843 54.6689C72.3787 54.9161 73.0496 55.1103 73.7617 55.1103C74.7328 55.1103 75.4685 54.7572 75.4685 53.839C75.4685 52.9033 74.6975 52.6149 73.9148 52.3383C72.9319 52.0205 72.002 51.6673 72.002 50.6433C72.002 49.5839 72.8259 49.1072 74.0383 49.1072C74.621 49.1072 75.2213 49.2072 75.6098 49.4014C75.804 49.5133 75.8334 49.6369 75.8334 49.7605C75.8334 49.8841 75.8098 49.9135 75.6568 49.8605C75.1919 49.7016 74.774 49.5898 74.0619 49.5898C73.0437 49.5839 72.5435 49.9547 72.5435 50.608Z" fill="#937B26"/>
<path d="M82.8782 49.6957H81.2303V55.2633C81.2303 55.434 81.195 55.4634 81.0302 55.4634H80.889C80.7124 55.4634 80.6771 55.4281 80.6771 55.2633V49.6957H78.6996C78.5172 49.6957 78.476 49.6722 78.476 49.5074V49.3956C78.476 49.2484 78.5113 49.219 78.6996 49.219H83.2196C83.3608 49.219 83.3961 49.2249 83.3961 49.3249C83.3903 49.5015 83.2431 49.6957 82.8782 49.6957Z" fill="#937B26"/>
<path d="M91.0707 55.2692C91.0707 55.4398 91.0353 55.4693 90.8705 55.4693H90.7175C90.5527 55.4693 90.5174 55.4339 90.5174 55.2692V52.4501H86.8802V55.2692C86.8802 55.4398 86.8332 55.4693 86.6684 55.4693H86.5271C86.3506 55.4693 86.3152 55.4339 86.3152 55.2692V49.4544C86.3152 49.2602 86.3506 49.2249 86.5448 49.2249H86.6448C86.8391 49.2249 86.8861 49.2602 86.8861 49.4544V51.9851H90.5233V49.4544C90.5233 49.2602 90.5586 49.2249 90.747 49.2249H90.8529C91.0471 49.2249 91.0824 49.2602 91.0824 49.4544V55.2692H91.0707Z" fill="#937B26"/>
<path d="M94.8432 55.2692V49.4779C94.8432 49.2661 94.8844 49.2249 95.108 49.2249H98.3921C98.5333 49.2249 98.5687 49.2307 98.5687 49.3249C98.5687 49.525 98.4098 49.7016 98.0507 49.7016H95.4141V51.9851H97.833C97.9742 51.9851 98.0095 51.991 98.0095 52.0852C98.0095 52.2794 97.8506 52.4559 97.4916 52.4559H95.42V54.9984H98.3038C98.4804 54.9984 98.5275 55.0337 98.5275 55.1809V55.2868C98.5275 55.4457 98.4804 55.4751 98.3038 55.4751H95.0845C94.8844 55.4693 94.8432 55.4457 94.8432 55.2692Z" fill="#937B26"/>
<path d="M105.302 49.6957H103.654V55.2633C103.654 55.434 103.618 55.4634 103.454 55.4634H103.312C103.136 55.4634 103.1 55.4281 103.1 55.2633V49.6957H101.123C100.94 49.6957 100.899 49.6722 100.899 49.5074V49.3956C100.899 49.2484 100.935 49.219 101.123 49.219H105.643C105.784 49.219 105.819 49.2249 105.819 49.3249C105.814 49.5015 105.666 49.6957 105.302 49.6957Z" fill="#937B26"/>
<path d="M109.304 55.2692C109.304 55.4398 109.257 55.4693 109.092 55.4693H108.951C108.774 55.4693 108.739 55.4339 108.739 55.2692V49.4544C108.739 49.2602 108.774 49.2249 108.968 49.2249H109.068C109.263 49.2249 109.31 49.2602 109.31 49.4544V55.2692H109.304Z" fill="#937B26"/>
<path d="M116.031 49.1072C116.79 49.1072 117.355 49.2779 117.679 49.4485C117.961 49.5957 118.002 49.7546 118.002 49.9252C118.002 50.043 117.961 50.0606 117.826 50.0076C117.42 49.8134 116.96 49.5839 116.042 49.5839C114.065 49.5839 113.217 50.7492 113.217 52.4265C113.217 54.0568 114.035 55.1103 116.031 55.1103C116.937 55.1103 117.355 54.9631 117.92 54.7513C118.038 54.6983 118.079 54.7336 118.079 54.8454C118.079 54.9278 118.055 55.1044 117.849 55.228C117.549 55.4104 116.908 55.5929 116.007 55.5929C113.818 55.5929 112.646 54.5335 112.646 52.4383C112.646 50.3431 113.824 49.1072 116.031 49.1072Z" fill="#937B26"/>
<path d="M121.522 50.608C121.522 51.4378 122.399 51.6202 123.299 51.9381C124.2 52.2382 125 52.6737 125 53.8096C125 54.9514 124.188 55.587 122.769 55.587C122.057 55.587 121.41 55.4281 121.039 55.2515C120.721 55.1044 120.633 54.9514 120.633 54.7572C120.633 54.5688 120.704 54.5983 120.857 54.6689C121.351 54.9161 122.022 55.1103 122.74 55.1103C123.711 55.1103 124.441 54.7572 124.441 53.839C124.441 52.9033 123.676 52.6149 122.887 52.3383C121.904 52.0205 120.974 51.6673 120.974 50.6433C120.974 49.5839 121.792 49.1072 123.011 49.1072C123.593 49.1072 124.194 49.2072 124.582 49.4014C124.776 49.5133 124.806 49.6369 124.806 49.7605C124.806 49.8841 124.782 49.9135 124.629 49.8605C124.164 49.7016 123.746 49.5898 123.034 49.5898C122.022 49.5839 121.522 49.9547 121.522 50.608Z" fill="#937B26"/>
</svg>
